<svg xmlns="http://www.w3.org/2000/svg" viewBox="0 0 1048 768.04"><defs><style>.cls-1{fill:#191c4c;}</style></defs><title>back-profile2</title><g id="Camada_2" data-name="Camada 2"><g id="Camada_1-2" data-name="Camada 1"><path class="cls-1" d="M0,0V383.73l.12.27Q.06,576,0,768H562c0-1.09,0-2.18,0-3.28,0-35.32,30.84-64,68.89-64h166.2c38.06,0,68.9-28.63,68.9-64H616c0-35.32,30.85-64,68.9-64h52.2c38,0,68.9-28.63,68.9-63.95H694c0-35.33,30.84-64,68.89-64h54.2c38.06,0,68.9-28.63,68.9-64H724.09c1.54-34.06,31.76-61.23,68.82-61.23h166.2c38.06,0,68.9-28.63,68.9-64H778c0-35.32,30.85-63.95,68.9-63.95h52.2c38,0,68.9-28.63,68.9-63.95H856c0-35.33,30.84-64,68.89-64h54.2c38.06,0,68.9-28.63,68.9-64h0Z"/></g></g></svg>