<svg xmlns="http://www.w3.org/2000/svg" viewBox="0 0 1048 768.04"><defs><style>.cls-1{fill:#191c4c;}.cls-2{fill:#d1c26b;}</style></defs><title>back-profile</title><g id="Camada_2" data-name="Camada 2"><g id="Camada_1-2" data-name="Camada 1"><path class="cls-1" d="M0,0V383.73l.12.27Q.06,576,0,768H562c0-1.09,0-2.18,0-3.28,0-35.32,30.84-64,68.89-64h166.2c38.06,0,68.9-28.63,68.9-64H616c0-35.32,30.85-64,68.9-64h52.2c38,0,68.9-28.63,68.9-63.95H694c0-35.33,30.84-64,68.89-64h54.2c38.06,0,68.9-28.63,68.9-64H724.09c1.54-34.06,31.76-61.23,68.82-61.23h166.2c38.06,0,68.9-28.63,68.9-64H778c0-35.32,30.85-63.95,68.9-63.95h52.2c38,0,68.9-28.63,68.9-63.95H856c0-35.33,30.84-64,68.89-64h54.2c38.06,0,68.9-28.63,68.9-64h0Z"/><path class="cls-2" d="M442.1,46.67c3.86,0,3.87-6,0-6s-3.87,6,0,6Z"/><path class="cls-2" d="M878.08,30.17c3.86,0,3.87-6,0-6s-3.87,6,0,6Z"/><path class="cls-2" d="M662.1,100.66c3.86,0,3.87-6,0-6s-3.87,6,0,6Z"/><path class="cls-2" d="M410.1,396.15c3.86,0,3.87-6,0-6s-3.86,6,0,6Z"/><path class="cls-2" d="M546.6,505.65c3.86,0,3.86-6,0-6s-3.87,6,0,6Z"/><path class="cls-2" d="M704.1,435.16c3.86,0,3.87-6,0-6s-3.87,6,0,6Z"/><path class="cls-2" d="M359.11,216.16c3.86,0,3.86-6,0-6s-3.87,6,0,6Z"/><path class="cls-2" d="M842.08,159.16c3.86,0,3.87-6,0-6s-3.86,6,0,6Z"/><path class="cls-2" d="M402.6,609.14c3.87,0,3.87-6,0-6s-3.86,6,0,6Z"/><path class="cls-2" d="M596.09,675.14c3.87,0,3.87-6,0-6s-3.86,6,0,6Z"/><path class="cls-2" d="M233.11,450.15c3.86,0,3.87-6,0-6s-3.86,6,0,6Z"/><path class="cls-2" d="M231.61,16.67c3.86,0,3.87-6,0-6s-3.86,6,0,6Z"/><path class="cls-2" d="M174.62,735.14c3.86,0,3.86-6,0-6s-3.87,6,0,6Z"/></g></g></svg>